# xmcd
# 
# Track frame offsets:
#     150
#     16643
#     33160
#     48394
#     59141
#     77033
#     89279
#     105150
#     119849
#     139459
#     153187
#     163721
#     181276
#     196286
# 
# Disc length: 2793
# 
# Revision: 2
# Processed by: cddbd v1.5.2PL0 Copyright (c) Steve Scherf et al.
# Submitted via: fre:ac v1.0.31
# 
DISCID=b30ae70e
DTITLE=Haley Reinhart - What's That Sound
DYEAR=2017
DGENRE=Jazz
TTITLE0=Let's Start
TTITLE1=Baby It's You
TTITLE2=For What It's Worth
TTITLE3=The Letter
TTITLE4=Can't Find My Way Home
TTITLE5=White Rabbit
TTITLE6=Somewhere In Between
TTITLE7=Oh Darling
TTITLE8=Sunny Afternoon
TTITLE9=You Showed Me
TTITLE10=Words Of Love
TTITLE11=Bring The Love Back Home
TTITLE12=Time Of The Season
TTITLE13=These Boots Are Made For Walkin'
EXTD=YEAR: 2017
EXTT0=
EXTT1=
EXTT2=
EXTT3=
EXTT4=
EXTT5=
EXTT6=
EXTT7=
EXTT8=
EXTT9=
EXTT10=
EXTT11=
EXTT12=
EXTT13=
PLAYORDER=
